<?xml version="1.0" encoding="UTF-8"?>
<svg xmlns="http://www.w3.org/2000/svg" viewBox="0 0 256 256" role="img" aria-label="Tel-U Weather icon - light header (high contrast)">
  <defs>
    <filter id="softShadow" x="-20%" y="-20%" width="140%" height="140%">
      <feDropShadow dx="0" dy="1" stdDeviation="1.8" flood-color="#000000" flood-opacity="0.18"/>
    </filter>
  </defs>

  <!-- Sun -->
  <circle cx="166" cy="90" r="24" fill="#FFFFFF" stroke="#0AB600" stroke-width="10" filter="url(#softShadow)"/>

  <!-- Cloud -->
  <path d="M90 162c-18.5 0-34-14.3-34-32s15.5-32 34-32c4.6 0 9.1 0.9 13.2 2.6 6.8-12.9 20-21.6 35.2-21.6 22.1 0 40.3 17.2 41.1 38.7 12.4 2.8 21.2 13.4 21.2 26 0 14.8-12.2 26.6-27.2 26.6H90z"
        fill="#FFFFFF" stroke="#0AB600" stroke-width="10" filter="url(#softShadow)"/>

  <!-- Raindrop -->
  <path d="M148 166c0-18 20-32 20-32s20 14 20 32-8.8 28-20 28-20-10-20-28z"
        fill="#FFFFFF" stroke="#0AB600" stroke-width="10" filter="url(#softShadow)"/>
</svg>
